<?xml version="1.0" standalone="no"?>
<!DOCTYPE svg PUBLIC "-//W3C//DTD SVG 20010904//EN"
 "http://www.w3.org/TR/2001/REC-SVG-20010904/DTD/svg10.dtd">
<svg version="1.0" xmlns="http://www.w3.org/2000/svg"
 width="512.000000pt" height="512.000000pt" viewBox="0 0 512.000000 512.000000"
 preserveAspectRatio="xMidYMid meet">

<g transform="translate(0.000000,512.000000) scale(0.100000,-0.100000)"
fill="#000000" stroke="none">
<path d="M2125 4500 c-32 -10 -1165 -1135 -1191 -1182 -12 -23 -14 -191 -14
-1131 0 -705 4 -1124 10 -1158 14 -75 69 -185 121 -243 57 -65 146 -121 234
-149 l70 -22 1205 0 1205 0 70 22 c88 28 177 84 234 149 52 58 107 168 121
243 14 74 14 2988 0 3062 -14 75 -69 185 -121 243 -55 63 -144 120 -228 148
-66 23 -69 23 -876 25 -466 1 -823 -2 -840 -7z m1704 -235 c68 -37 125 -102
148 -168 17 -49 18 -132 18 -1537 0 -1434 -1 -1487 -19 -1540 -26 -74 -101
-149 -180 -179 l-58 -21 -1196 2 -1197 3 -54 30 c-68 37 -125 102 -148 168
-17 49 -18 116 -18 1097 l0 1045 365 5 c345 5 368 6 423 27 176 66 308 225
337 403 5 36 10 208 10 383 l0 317 758 -2 757 -3 54 -30z m-1794 -681 c-20
-69 -96 -153 -167 -185 -51 -23 -64 -24 -320 -27 -148 -2 -268 0 -268 5 0 4
172 180 383 391 l382 382 3 -257 c2 -206 -1 -267 -13 -309z"/>
<path d="M2449 3481 c-23 -23 -29 -38 -29 -71 0 -33 6 -48 29 -71 l29 -29 412
0 c446 0 454 1 478 55 23 51 7 107 -39 131 -23 11 -103 14 -439 14 l-412 0
-29 -29z"/>
<path d="M1792 2860 c-65 -40 -66 -125 -3 -167 l34 -23 736 0 c718 0 737 1
769 20 65 40 66 125 3 167 l-34 23 -736 0 c-718 0 -737 -1 -769 -20z"/>
<path d="M1791 2226 c-67 -37 -65 -143 4 -174 37 -17 1493 -17 1530 0 29 13
55 55 55 88 0 33 -26 75 -55 88 -40 18 -1501 16 -1534 -2z"/>
<path d="M1792 1590 c-65 -40 -66 -125 -3 -167 l34 -23 736 0 c718 0 737 1
769 20 65 40 66 125 3 167 l-34 23 -736 0 c-718 0 -737 -1 -769 -20z"/>
</g>
</svg>
